<svg width="20px" height="15px" viewBox="0 0 20 15" version="1.1" xmlns="http://www.w3.org/2000/svg" xmlns:xlink="http://www.w3.org/1999/xlink"><g stroke="none" stroke-width="1" fill="none" fill-rule="evenodd"><g transform="translate(-12.000000, -25.000000)" fill="#FFFFFF"><g transform="translate(12.000000, 25.000000)"><path d="M3.37922539,6.19174558 L7.79269405,1.76695673 C8.179342,1.37957137 8.179342,0.751158979 7.79269405,0.363830931 C7.40604609,-0.0237836438 6.77920081,-0.0237836438 6.39312448,0.363830931 L0.289985967,6.4823419 C-0.0966619889,6.86972726 -0.0966619889,7.49819696 0.289985967,7.8854677 L6.39312448,14.0042652 C6.5863913,14.1981298 6.83967886,14.2949188 7.09290926,14.2949188 C7.34613967,14.2949188 7.59942723,14.1981298 7.79269405,14.0042652 C8.179342,13.6168798 8.179342,12.9884674 7.79269405,12.6011967 L3.37922539,8.17617863 L19.0101721,8.17617863 C19.5567611,8.17617863 20,7.73188889 20,7.18393345 C20,6.63597802 19.5568182,6.19174558 19.0101721,6.19174558 L3.37922539,6.19174558 Z"></path></g></g></g></svg>