<svg width="30" height="30" viewBox="0 0 30 30" fill="none" xmlns="http://www.w3.org/2000/svg">
  <path fill-rule="evenodd" clip-rule="evenodd" d="M15.2988 2C7.95539 2 2 7.95459 2 15.3004C2 21.1758 5.81051 26.1612 11.0955 27.9208C11.761 28.0424 12.0035 27.6316 12.0035 27.279C12.0035 26.963 11.992 26.127 11.9855 25.0174C8.28607 25.8208 7.50551 23.2342 7.50551 23.2342C6.90049 21.6976 6.02851 21.2884 6.02851 21.2884C4.82093 20.4638 6.11995 20.4802 6.11995 20.4802C7.45489 20.574 8.15705 21.851 8.15705 21.851C9.34339 23.8832 11.2703 23.2962 12.028 22.9558C12.1488 22.0968 12.4925 21.5106 12.8722 21.1782C9.91901 20.8418 6.81395 19.7012 6.81395 14.6048C6.81395 13.1523 7.33241 11.9659 8.18319 11.036C8.04603 10.6996 7.58961 9.34749 8.31383 7.51613C8.31383 7.51613 9.42993 7.15851 11.9708 8.87881C13.0314 8.58407 14.1696 8.43711 15.3004 8.43139C16.4304 8.43711 17.5678 8.58407 18.63 8.87881C21.1692 7.15851 22.2836 7.51613 22.2836 7.51613C23.0096 9.34749 22.5532 10.6996 22.4168 11.036C23.2692 11.9659 23.7836 13.1523 23.7836 14.6048C23.7836 19.7143 20.6736 20.8386 17.7115 21.1676C18.1883 21.5784 18.6137 22.39 18.6137 23.631C18.6137 25.4084 18.5973 26.843 18.5973 27.279C18.5973 27.635 18.8374 28.049 19.5118 27.919C24.7928 26.1564 28.6 21.175 28.6 15.3004C28.6 7.95459 22.6446 2 15.2988 2Z" fill="#ecedee"></path>
</svg>