<svg width="30" height="30" viewBox="0 0 30 30" fill="none" xmlns="http://www.w3.org/2000/svg">
  <path fill-rule="evenodd" clip-rule="evenodd" d="M29.0071 6.72402C27.9751 7.18435 26.8679 7.49688 25.7063 7.63625C26.8929 6.91829 27.8038 5.778 28.23 4.42233C27.1186 5.08961 25.8901 5.57106 24.5823 5.8329C23.5336 4.70529 22.0419 4 20.3873 4C17.216 4 14.6421 6.60154 14.6421 9.80701C14.6421 10.2632 14.6923 10.7065 14.7926 11.1289C10.0168 10.8881 5.78415 8.57381 2.95126 5.06004C2.45822 5.91737 2.1741 6.91406 2.1741 7.97833C2.1741 9.99284 3.18943 11.7708 4.73122 12.8097C3.7911 12.7802 2.9053 12.5183 2.12814 12.0833C2.12814 12.1087 2.12814 12.1298 2.12814 12.1551C2.12814 14.9678 4.10865 17.3161 6.73681 17.8482C6.2563 17.9791 5.74655 18.0508 5.22426 18.0508C4.85239 18.0508 4.49306 18.0128 4.14208 17.9452C4.87328 20.2512 6.99586 21.9321 9.50702 21.9785C7.53904 23.5369 5.06549 24.466 2.37048 24.466C1.90669 24.466 1.45125 24.4364 1 24.3857C3.54041 26.0329 6.56132 26.9957 9.80786 26.9957C20.3748 26.9957 26.1534 18.148 26.1534 10.4743C26.1534 10.2209 26.1492 9.97172 26.1367 9.72255C27.2606 8.90323 28.2342 7.8812 29.003 6.71557L29.0071 6.72402Z" fill="#1D9BF0"></path>
</svg>