<svg width="16px" height="15px" viewBox="0 0 16 15" version="1.1" xmlns="http://www.w3.org/2000/svg" xmlns:xlink="http://www.w3.org/1999/xlink"><defs><path d="M40.666386,12.4515944 L37.2280767,14.2269415 C36.243961,14.7350828 35.5997694,14.2674949 35.7892784,13.1823031 L36.4431486,9.438025 L33.661498,6.77500433 C32.8653316,6.01279232 33.1063303,5.26839325 34.1958401,5.11290527 L38.0562818,4.56196732 L39.7681362,1.15531061 C40.2642259,0.168072918 41.0684947,0.16797049 41.5646358,1.15531061 L43.2764902,4.56196732 L47.1369319,5.11290527 C48.2282073,5.26864523 48.4714419,6.00896147 47.671274,6.77500433 L44.8896234,9.438025 L45.5434936,13.1823031 C45.732983,14.2673823 45.0937572,14.7376367 44.1046953,14.2269415 L40.666386,12.4515944 Z" id="path-hollow"></path><mask id="mask-hollow" maskContentUnits="userSpaceOnUse" maskUnits="objectBoundingBox" x="0" y="0" width="14.9275832" height="14" fill="white"><use xlink:href="#path-hollow"></use></mask></defs><g stroke="none" stroke-width="1" fill="none" fill-rule="evenodd" stroke-opacity="0.698680933"><g transform="translate(-59.000000, -112.000000)" stroke="#2e3e4d" stroke-width="2"><g transform="translate(26.000000, 112.000000)"><use id="hollow-star" mask="url(#mask-hollow)" xlink:href="#path-hollow"></use></g></g></g></svg>
