
<svg width="16" height="15" viewBox="0 0 16 15" xmlns="http://www.w3.org/2000/svg" xmlns:xlink="http://www.w3.org/1999/xlink"><defs><path d="M7.94 12.452L4.5 14.227c-.983.508-1.628.04-1.438-1.045l.654-3.744L.934 6.775C.138 6.013.38 5.268 1.47 5.113l3.86-.55 1.71-3.408c.497-.987 1.3-.987 1.797 0l1.712 3.407 3.86.55c1.09.157 1.334.897.534 1.663l-2.782 2.663.654 3.744c.19 1.085-.45 1.556-1.44 1.045L7.94 12.452z" id="a"/><mask id="b" x="0" y="0" width="14.928" height="14" fill="#fff"><use xlink:href="#a"/></mask><path id="c" d="M0 0h8v15H0z"/></defs><g transform="translate(.364)" fill="none" fill-rule="evenodd"><use stroke-opacity=".699" stroke="#FFF" mask="url(#b)" stroke-width="2" xlink:href="#a"/><mask id="d" fill="#fff"><use xlink:href="#c"/></mask><path d="M7.94 12.452L4.5 14.227c-.983.508-1.628.04-1.438-1.045l.654-3.744L.934 6.775C.138 6.013.38 5.268 1.47 5.113l3.86-.55 1.71-3.408c.497-.987 1.3-.987 1.797 0l1.712 3.407 3.86.55c1.09.157 1.334.897.534 1.663l-2.782 2.663.654 3.744c.19 1.085-.45 1.556-1.44 1.045L7.94 12.452z" fill="#2e3e4d" mask="url(#d)"/></g></svg>